<svg width="272" height="195" viewBox="0 0 272 195" fill="none" xmlns="http://www.w3.org/2000/svg">
<g clip-path="url(#clip0_473_1499)">
<path d="M134.113 194.176H123.664V114.199H132.162C132.573 114.199 132.968 114.361 133.26 114.65C133.552 114.939 133.716 115.33 133.719 115.74L134.113 194.176Z" fill="#CCCCCC"/>
<path d="M124.641 194.599H12.4348V137.642H124.641V194.599Z" fill="white"/>
<path d="M80.4146 194.388H12.6477V137.854H124.428V150.616C124.414 162.221 119.773 173.347 111.522 181.553C103.271 189.759 92.0835 194.375 80.4146 194.388Z" fill="#F2F2F2"/>
<path d="M132.411 116.471C132.355 116.577 132.311 116.689 132.281 116.805L128.411 131.637L124.215 139.542H12.8608V137.573L19.2006 131.637L26.5962 117.569C26.9227 116.948 27.3514 116.385 27.8646 115.905C29.0356 114.809 30.5829 114.199 32.1908 114.199H131.034C131.303 114.199 131.566 114.268 131.8 114.399C132.034 114.531 132.229 114.72 132.368 114.948C132.506 115.177 132.583 115.437 132.591 115.704C132.598 115.971 132.536 116.235 132.411 116.471Z" fill="#F2F2F2"/>
<path d="M124.641 194.599H12.4348V137.642H124.641V194.599ZM13.2866 193.752H123.789V138.489H13.2866V193.752Z" fill="#E6E6E6"/>
<path d="M130.478 124.058L128.411 131.637H19.2007L22.7296 125.329L130.478 124.058Z" fill="#CCCCCC"/>
<path d="M34.4592 167.489H16.5725V168.473H34.4592V167.489Z" fill="white"/>
<path d="M34.4592 170.934H16.5725V171.918H34.4592V170.934Z" fill="white"/>
<path d="M34.4592 174.379H16.5725V175.364H34.4592V174.379Z" fill="white"/>
<path d="M23.5012 156.523C27.0544 156.523 29.9349 153.658 29.9349 150.124C29.9349 146.591 27.0544 143.726 23.5012 143.726C19.9479 143.726 17.0674 146.591 17.0674 150.124C17.0674 153.658 19.9479 156.523 23.5012 156.523Z" fill="white"/>
<path d="M94.0166 127.339H88.5525V85.5147H92.9963C93.2116 85.5147 93.418 85.5995 93.5706 85.7504C93.7232 85.9014 93.8095 86.1063 93.8105 86.3204L94.0166 127.339Z" fill="#CCCCCC"/>
<path d="M89.0632 127.56H30.3848V97.7743H89.0632V127.56Z" fill="white"/>
<path d="M65.935 127.45H30.4961V97.8851H88.9518V104.559C88.9449 110.628 86.5177 116.446 82.2027 120.738C77.8877 125.029 72.0373 127.443 65.935 127.45Z" fill="#F2F2F2"/>
<path d="M93.1268 86.7027C93.0974 86.7582 93.0745 86.8169 93.0586 86.8777L91.0352 94.6342L88.8405 98.768H30.6077V97.7384L33.9231 94.6342L37.7906 87.2769C37.9613 86.9521 38.1856 86.658 38.4539 86.4069C39.0663 85.8338 39.8755 85.5147 40.7163 85.5147H92.4069C92.5472 85.5147 92.6852 85.5508 92.8074 85.6194C92.9296 85.6881 93.0318 85.787 93.1043 85.9065C93.1767 86.026 93.2168 86.1622 93.2208 86.3017C93.2247 86.4412 93.1924 86.5793 93.1268 86.7027Z" fill="#F2F2F2"/>
<path d="M89.0632 127.56H30.3848V97.7743H89.0632V127.56ZM30.8302 127.117H88.6177V98.2174H30.8302V127.117Z" fill="#E6E6E6"/>
<path d="M92.116 90.6708L91.0351 94.634H33.9231L35.7685 91.3349L92.116 90.6708Z" fill="#CCCCCC"/>
<path d="M41.9025 113.383H32.5486V113.897H41.9025V113.383Z" fill="white"/>
<path d="M41.9025 115.184H32.5486V115.699H41.9025V115.184Z" fill="white"/>
<path d="M41.9025 116.986H32.5486V117.501H41.9025V116.986Z" fill="white"/>
<path d="M36.1719 107.648C38.0301 107.648 39.5365 106.15 39.5365 104.302C39.5365 102.454 38.0301 100.956 36.1719 100.956C34.3137 100.956 32.8074 102.454 32.8074 104.302C32.8074 106.15 34.3137 107.648 36.1719 107.648Z" fill="white"/>
<path d="M255.053 194.571L255.019 194.39C254.466 191.358 254.584 188.243 255.364 185.261C256.144 182.279 257.567 179.501 259.535 177.122C260.65 175.795 261.928 174.614 263.34 173.606L263.474 173.509L263.533 173.663C264.235 175.504 265.121 177.348 265.525 178.164L265.798 172.072L265.953 171.99C266.666 171.611 267.476 171.452 268.28 171.534C269.084 171.617 269.845 171.937 270.464 172.453C271.105 172.965 271.577 173.657 271.819 174.438C272.061 175.219 272.063 176.055 271.823 176.837C271.612 177.552 271.412 178.295 271.218 179.013C270.554 181.48 269.866 184.031 268.534 186.179C267.51 187.796 266.136 189.164 264.512 190.184C262.888 191.205 261.055 191.852 259.148 192.077L255.053 194.571Z" fill="#F2F2F2"/>
<path d="M272 194.496C272 194.562 271.987 194.628 271.962 194.689C271.936 194.75 271.899 194.806 271.852 194.853C271.805 194.9 271.749 194.937 271.687 194.962C271.626 194.987 271.56 195 271.493 195H0.506804C0.372392 195 0.243483 194.947 0.148438 194.852C0.0533945 194.758 0 194.63 0 194.496C0 194.362 0.0533945 194.234 0.148438 194.14C0.243483 194.045 0.372392 193.992 0.506804 193.992H271.493C271.56 193.992 271.626 194.005 271.687 194.03C271.749 194.055 271.805 194.092 271.852 194.139C271.899 194.186 271.936 194.242 271.962 194.303C271.987 194.364 272 194.43 272 194.496Z" fill="#CCCCCC"/>
<path d="M210.534 65.5342L202.778 64.4292C200.154 68.7918 199.222 80.4035 199.222 80.4035L191.631 98.3472C191.128 98.6868 190.724 99.1521 190.46 99.6963C190.195 100.241 190.08 100.844 190.125 101.447C190.169 102.05 190.373 102.63 190.715 103.13C191.057 103.629 191.526 104.031 192.073 104.293C192.621 104.555 193.228 104.669 193.834 104.624C194.44 104.579 195.023 104.376 195.525 104.035C196.027 103.694 196.43 103.228 196.693 102.683C196.956 102.138 197.07 101.534 197.024 100.931L209.488 80.0456L210.534 65.5342Z" fill="#FFB8B8"/>
<path d="M209.299 44.1181C210.5 44.303 211.645 44.7488 212.652 45.4237C213.66 46.0987 214.506 46.9862 215.129 48.0231C215.753 49.0601 216.139 50.2209 216.26 51.4231C216.381 52.6253 216.235 53.8393 215.83 54.9787L214.184 59.6187C214.184 59.6187 213.288 73.5896 209.871 77.5332L199.386 76.5892C199.386 76.5892 201.303 69.5407 199.831 66.1304C198.93 64.0418 198.98 56.8283 199.868 50.9602C200.034 49.8945 200.41 48.872 200.975 47.9511C201.539 47.0302 202.281 46.2291 203.157 45.5936C204.033 44.958 205.026 44.5006 206.08 44.2474C207.134 43.9942 208.228 43.9502 209.299 44.1181Z" fill="#E6E6E6"/>
<path d="M234.933 189.082L230.261 189.082L228.038 171.158L234.934 171.159L234.933 189.082Z" fill="#FFB6B6"/>
<path d="M235.098 193.93L220.73 193.929V193.749C220.73 192.274 221.319 190.859 222.368 189.816C223.417 188.773 224.839 188.187 226.322 188.187L228.947 186.207L233.844 188.187L235.098 188.187L235.098 193.93Z" fill="#444444"/>
<path d="M214.62 166.869L210.304 168.648L201.347 152.939L207.717 150.312L214.62 166.869Z" fill="#FFB6B6"/>
<path d="M216.639 171.284L203.367 176.757L203.298 176.591C202.73 175.228 202.729 173.697 203.296 172.334C203.863 170.971 204.951 169.888 206.321 169.322L207.983 166.493L213.269 166.457L214.428 165.979L216.639 171.284Z" fill="#444444"/>
<path d="M240.276 87.123L207.117 90.5684L202.682 105.426L187.321 129.976L204.281 160.966L210.254 155.635L204.521 130.61L221.633 112.236L224.878 110.897L227.454 179.076L236.981 179.232L241.15 104.001C243.153 97.3547 242.55 91.8673 240.276 87.123Z" fill="#444444"/>
<path d="M228.119 40.0885L222.676 33.9937L214.076 34.944L208.57 42.6073C205.639 43.2774 203.078 45.0391 201.414 47.5299C199.749 50.0208 199.108 53.0513 199.622 55.9981C201.759 68.234 209.02 80.1014 206.622 86.1387C202.983 95.3031 202.76 99.0407 211.473 97.7559C220.185 96.471 249.372 93.509 243.713 87.8813C238.054 82.2535 236.811 72.8493 236.811 72.8493L236.584 51.3341C236.825 50.0364 236.793 48.7033 236.49 47.4186C236.188 46.1339 235.621 44.9253 234.826 43.869C234.031 42.8128 233.024 41.9316 231.87 41.2809C230.716 40.6303 229.438 40.2243 228.119 40.0885Z" fill="#E6E6E6"/>
<path d="M217.483 32.434C222.755 32.434 227.029 28.1834 227.029 22.9399C227.029 17.6964 222.755 13.4457 217.483 13.4457C212.211 13.4457 207.937 17.6964 207.937 22.9399C207.937 28.1834 212.211 32.434 217.483 32.434Z" fill="#FFB8B8"/>
<path d="M229.245 22.3761C228.819 24.2997 228.05 26.132 226.975 27.7862C226.689 28.3503 226.263 28.8318 225.736 29.1847C225.47 29.3548 225.152 29.4266 224.837 29.3875C224.523 29.3484 224.233 29.201 224.016 28.9708L223.784 28.7827C224.24 28.5035 224.646 28.1525 224.988 27.7434C225.158 27.5381 225.275 27.2956 225.331 27.036C225.387 26.7764 225.38 26.5072 225.311 26.2508C225.228 25.998 225.05 25.7868 224.815 25.6616C224.579 25.5364 224.304 25.5069 224.046 25.5794C223.487 25.7975 223.148 26.6015 222.563 26.4775C222.09 26.3749 221.991 25.7547 221.991 25.2672C222.008 22.7182 220.77 19.0958 219.811 19.207C218.842 19.2597 217.872 19.1306 216.951 18.8264C216.029 18.5217 215.056 18.3982 214.087 18.4629C214.018 18.4714 213.949 18.4843 213.876 18.4971C213.721 18.0128 213.507 17.549 213.24 17.1157C213.27 17.6387 213.244 18.1634 213.162 18.681C212.391 18.9972 211.594 19.2475 210.78 19.4294C209.894 19.5535 207.946 22.1879 207.856 21.9185C207.7 21.4342 207.487 20.9704 207.219 20.5371C207.25 21.0601 207.224 21.5848 207.142 22.1024C207.138 22.1238 207.138 22.1409 207.133 22.1623C206.703 21.5934 206.441 20.9006 206.587 21.4309C205.147 18.1892 205.706 15.8669 207.972 13.134C208.414 12.5464 208.998 12.08 209.671 11.7783C210.007 11.6312 210.377 11.5728 210.743 11.6087C211.109 11.6447 211.459 11.7738 211.761 11.9836C212.685 11.1408 213.819 10.5592 215.045 10.299C216.272 10.0388 217.546 10.1095 218.736 10.5038C221.096 11.3207 222.915 11.7997 223.277 14.2631C225.229 13.9509 227.237 15.0543 228.312 16.7008C229.383 18.3517 229.602 20.4473 229.245 22.3761Z" fill="#444444"/>
<path d="M221.504 101.234H218.336V76.9814H220.913C221.037 76.9814 221.157 77.0306 221.246 77.1181C221.334 77.2057 221.384 77.3245 221.385 77.4486L221.504 101.234Z" fill="#444444"/>
<path d="M218.632 101.362H184.606V84.0904H218.632V101.362Z" fill="white"/>
<path d="M205.221 101.298H184.671V84.1546H218.567V88.0244C218.563 91.5436 217.156 94.9175 214.654 97.4059C212.152 99.8943 208.759 101.294 205.221 101.298Z" fill="#E63946"/>
<path d="M220.988 77.6703C220.971 77.7025 220.958 77.7365 220.949 77.7717L219.775 82.2695L218.503 84.6665H184.736V84.0695L186.658 82.2695L188.901 78.0032C189 77.8149 189.13 77.6444 189.285 77.4988C189.64 77.1665 190.11 76.9814 190.597 76.9814H220.571C220.652 76.9814 220.732 77.0023 220.803 77.0421C220.874 77.082 220.933 77.1393 220.975 77.2086C221.017 77.2779 221.04 77.3568 221.043 77.4377C221.045 77.5186 221.026 77.5987 220.988 77.6703Z" fill="#444444"/>
<path d="M218.632 101.362H184.606V84.0904H218.632V101.362ZM184.865 101.105H218.374V84.3472H184.865V101.105Z" fill="#444444"/>
<path d="M220.402 79.9709L219.775 82.2696H186.658L187.728 80.3564L220.402 79.9709Z" fill="#E63946"/>
<path d="M191.285 93.141H185.861V93.4395H191.285V93.141Z" fill="white"/>
<path d="M191.285 94.1858H185.861V94.4843H191.285V94.1858Z" fill="white"/>
<path d="M191.285 95.2306H185.861V95.5291H191.285V95.2306Z" fill="white"/>
<path d="M187.962 89.8158C189.04 89.8158 189.913 88.9471 189.913 87.8755C189.913 86.8039 189.04 85.9352 187.962 85.9352C186.885 85.9352 186.011 86.8039 186.011 87.8755C186.011 88.9471 186.885 89.8158 187.962 89.8158Z" fill="white"/>
<path d="M234.741 63.3167L226.985 62.2118C224.361 66.5744 223.429 78.1861 223.429 78.1861L215.838 96.1298C215.336 96.4694 214.932 96.9347 214.667 97.4789C214.403 98.0231 214.287 98.627 214.332 99.2297C214.377 99.8325 214.58 100.413 214.923 100.912C215.265 101.412 215.733 101.813 216.28 102.075C216.828 102.338 217.435 102.452 218.041 102.407C218.647 102.361 219.231 102.158 219.733 101.817C220.234 101.477 220.637 101.01 220.9 100.466C221.163 99.9207 221.278 99.3166 221.231 98.7139L233.695 77.8282L234.741 63.3167Z" fill="#FFB8B8"/>
<path d="M230.537 41.9007C231.738 42.0856 232.883 42.5314 233.89 43.2063C234.898 43.8813 235.744 44.7688 236.367 45.8057C236.991 46.8426 237.377 48.0035 237.498 49.2057C237.619 50.4079 237.472 51.6219 237.068 52.7613L235.422 57.4012C235.422 57.4012 237.496 71.3721 234.078 75.3158L223.593 74.3718C223.593 74.3718 225.51 67.3233 224.038 63.913C223.137 61.8244 223.187 54.6109 224.075 48.7427C224.753 44.2619 226.035 41.2072 230.537 41.9007Z" fill="#E6E6E6"/>
<path d="M164.673 18.7846C160.884 20.6643 158 23.9642 156.657 27.9584C155.313 31.9525 155.62 36.3138 157.511 40.0828C161.446 47.9312 175.669 61.3167 187.016 63.3391C182.135 48.5994 188.922 33.6172 186.089 25.9081C183.061 17.6708 172.565 14.8704 164.673 18.7846Z" fill="#E63946"/>
<path d="M169.993 37.4508C172.869 37.4508 175.2 35.132 175.2 32.2717C175.2 29.4114 172.869 27.0927 169.993 27.0927C167.117 27.0927 164.785 29.4114 164.785 32.2717C164.785 35.132 167.117 37.4508 169.993 37.4508Z" fill="white"/>
<path d="M186.916 71.6518C188.8 71.6518 190.327 70.1331 190.327 68.2597C190.327 66.3862 188.8 64.8675 186.916 64.8675C185.032 64.8675 183.505 66.3862 183.505 68.2597C183.505 70.1331 185.032 71.6518 186.916 71.6518Z" fill="#E63946"/>
<path opacity="0.2" d="M171.58 26.8276C172.264 26.804 172.945 26.9146 173.586 27.1531C174.227 27.3917 174.814 27.7535 175.314 28.2179C175.814 28.6823 176.218 29.2401 176.501 29.8596C176.784 30.479 176.942 31.1479 176.965 31.828C176.988 32.5081 176.876 33.186 176.636 33.8231C176.396 34.4602 176.031 35.0439 175.564 35.5409C175.096 36.0379 174.535 36.4384 173.912 36.7196C173.289 37.0007 172.616 37.157 171.933 37.1795C173.091 36.7508 174.059 35.9259 174.662 34.8525C175.266 33.7791 175.465 32.5271 175.225 31.3208C174.985 30.1145 174.321 29.0325 173.352 28.2684C172.383 27.5044 171.173 27.1083 169.937 27.1509C170.463 26.9557 171.018 26.8465 171.58 26.8276Z" fill="#212121"/>
<path opacity="0.2" d="M186.115 25.9112C188.948 33.6202 182.161 48.6024 187.042 63.3421C185.971 63.146 184.916 62.8713 183.886 62.5204C179.909 48.2717 186.151 34.0339 183.414 26.5855C180.964 19.9192 173.622 16.8145 166.728 17.9471C174.294 15.3807 183.341 18.3624 186.115 25.9112Z" fill="#212121"/>
<path d="M26.2602 97.4348C22.3373 97.3411 18.5376 98.8011 15.6971 101.494C12.8566 104.186 11.2079 107.891 11.1137 111.792C10.9176 119.916 16.7339 137.009 25.1466 143.555C27.5711 129.379 39.6578 120.033 40.6963 112.498C41.806 104.447 34.4292 97.6299 26.2602 97.4348Z" fill="#D1D3D4"/>
<path d="M24.7404 115.573C27.4053 115.573 29.5657 113.424 29.5657 110.774C29.5657 108.123 27.4053 105.975 24.7404 105.975C22.0754 105.975 19.915 108.123 19.915 110.774C19.915 113.424 22.0754 115.573 24.7404 115.573Z" fill="white"/>
<path d="M22.9207 150.686C24.6662 150.686 26.0812 149.278 26.0812 147.542C26.0812 145.806 24.6662 144.399 22.9207 144.399C21.1752 144.399 19.7603 145.806 19.7603 147.542C19.7603 149.278 21.1752 150.686 22.9207 150.686Z" fill="#D1D3D4"/>
<path opacity="0.2" d="M28.4125 106.999C29.5633 107.555 30.4445 108.544 30.8624 109.747C31.2803 110.95 31.2006 112.269 30.6407 113.413C30.3636 113.98 29.9769 114.487 29.5027 114.905C29.0286 115.323 28.4763 115.644 27.8773 115.85C26.6677 116.265 25.3417 116.186 24.1909 115.629C25.3269 115.778 26.4789 115.519 27.4407 114.9C28.4026 114.281 29.1114 113.341 29.4404 112.25C29.7695 111.158 29.6972 109.986 29.2365 108.943C28.7758 107.899 27.9568 107.053 26.9261 106.556C27.4424 106.623 27.9443 106.772 28.4125 106.999Z" fill="#212121"/>
<path opacity="0.2" d="M40.7165 112.512C39.678 120.047 27.5913 129.393 25.1668 143.569C24.3751 142.947 23.6307 142.267 22.9397 141.536C25.8908 128.152 37.2067 119.18 38.2101 111.9C39.1082 105.384 34.4478 99.6776 28.3077 97.6342C35.6232 98.7931 41.7334 105.134 40.7165 112.512Z" fill="#212121"/>
<path d="M82.3925 34.9072C81.2899 34.9789 80.2591 35.4757 79.5192 36.2918C78.7793 37.1079 78.3889 38.1789 78.4309 39.277C78.443 39.5 78.4736 39.7217 78.5225 39.9398L66.0024 47.7842L72.9242 50.8287L83.7522 42.9128C84.6456 42.6413 85.4235 42.0833 85.9646 41.326C86.5056 40.5686 86.7793 39.6544 86.7429 38.726C86.7171 38.198 86.587 37.6802 86.36 37.2021C86.133 36.7241 85.8135 36.2952 85.4199 35.9399C85.0262 35.5847 84.566 35.31 84.0656 35.1316C83.5652 34.9533 83.0344 34.8746 82.5034 34.9003C82.4664 34.9021 82.4294 34.9044 82.3925 34.9072Z" fill="#FFB6B6"/>
<path d="M70.3193 44.2188L73.4222 50.586L61.1535 58.4378C60.2805 59.0013 59.2772 59.3334 58.2388 59.4026C57.2004 59.4718 56.1615 59.2757 55.2207 58.8331C54.077 58.2886 53.1422 57.3892 52.5572 56.2703C51.9722 55.1515 51.7688 53.8738 51.9775 52.63L55.9584 30.027C56.2257 28.4452 57.0923 27.0255 58.3799 26.0597C59.6675 25.0939 61.2782 24.6556 62.8809 24.8348C63.6615 24.9197 64.4176 25.1567 65.1062 25.5322C65.7947 25.9077 66.4021 26.4144 66.8937 27.0234C67.3853 27.6324 67.7515 28.3317 67.9714 29.0814C68.1913 29.8312 68.2605 30.6166 68.1752 31.393C68.1684 31.4543 68.1607 31.5155 68.152 31.5766C68.1219 31.7938 68.0801 32.0092 68.0267 32.2219L63.6807 48.2968L70.3193 44.2188Z" fill="#E63946"/>
<path d="M71.1912 54.0894H53.6455V71.5391H71.1912V54.0894Z" fill="#FFB8B8"/>
<path d="M112.801 105.48L119.502 103.238L123.233 121.378L118.692 122.897L112.801 105.48Z" fill="#FFB6B6"/>
<path d="M101.444 104.086L108.09 101.69L112.245 119.738L107.742 121.362L101.444 104.086Z" fill="#FFB6B6"/>
<path d="M54.2748 76.0979C50.7581 99.4142 97.5892 85.6292 97.5892 85.6292L112.273 105.774L120.869 104.22C120.869 104.22 117.001 92.1262 110.093 75.914C107.025 68.7143 72.1908 70.4736 72.1908 70.4736L71.4675 64.8283L51.5396 64.4396L54.2748 76.0979Z" fill="#444444"/>
<path d="M88.103 87.1923L98.9322 80.4847C106.86 96.2286 109.197 103.047 109.197 103.047L101.702 105.143L88.103 87.1923Z" fill="#444444"/>
<path d="M64.2984 25.7337L60.7668 21.219L55.7291 21.0017L55.2263 25.2479L52.7301 26.3926C50.2376 35.8099 49.8527 45.6563 51.6024 55.2376C51.937 55.5508 52.1814 55.9472 52.3105 56.3857C52.4397 56.8243 52.4488 57.2891 52.337 57.7324L52.1752 58.374L52.1901 58.3975C52.7213 59.231 52.9015 60.2389 52.6919 61.2034L51.4998 63.31C51.072 64.0676 50.8153 64.9088 50.7475 65.775C50.6796 66.6413 50.8024 67.5118 51.1071 68.3261C51.4118 69.1404 51.8912 69.8789 52.512 70.4903C53.1328 71.1017 53.88 71.5712 54.7017 71.8663C62.0293 74.5078 68.8982 75.4917 73.9799 68.0794L75.5778 42.2486L64.2984 25.7337Z" fill="#E63946"/>
<path d="M60.5986 22.4179C65.7429 22.4179 69.9131 18.2705 69.9131 13.1544C69.9131 8.03831 65.7429 3.8909 60.5986 3.8909C55.4544 3.8909 51.2842 8.03831 51.2842 13.1544C51.2842 18.2705 55.4544 22.4179 60.5986 22.4179Z" fill="#FFB8B8"/>
<path d="M55.9227 1.98738C51.9788 2.06274 48.8508 5.70095 48.936 10.1136C46.0175 13.1422 45.3105 28.0391 47.7491 32.002C52.2101 32.517 54.9235 21.5408 58.8357 23.1275L59.3511 20.7321L60.5194 23.8515C61.5136 24.3074 62.5003 24.8077 63.4795 25.3526C64.1832 22.1425 64.0088 19.0222 62.1174 16.3044C60.4371 13.8899 64.5262 11.0234 67.4505 11.4285L67.4076 9.21094L68.1422 11.4153C69.2821 12.2484 70.543 11.9468 71.8361 11.3448C73.9329 0.506756 57.699 -2.45709 55.9227 1.98738Z" fill="#444444"/>
<path d="M116.629 125.965L119.614 125.577L119.779 122.705L121.512 125.331L129.43 124.302C129.809 124.253 130.163 124.084 130.44 123.821C130.716 123.557 130.9 123.213 130.966 122.838C131.032 122.463 130.975 122.077 130.804 121.736C130.634 121.395 130.358 121.118 130.018 120.944L123.124 117.422L122.752 114.588L116.153 115.847L116.629 125.965Z" fill="#444444"/>
<path d="M108.743 125.991L111.452 124.683L110.694 121.907L113.173 123.852L120.357 120.383C120.701 120.216 120.983 119.945 121.161 119.608C121.34 119.271 121.405 118.887 121.348 118.51C121.291 118.134 121.114 117.785 120.844 117.516C120.573 117.246 120.223 117.07 119.845 117.012L112.185 115.842L110.93 113.271L105.071 116.543L108.743 125.991Z" fill="#444444"/>
<path d="M67.8574 64.2177H71.1785V38.797H68.4775C68.3467 38.797 68.2212 38.8485 68.1285 38.9403C68.0357 39.0321 67.9833 39.1566 67.9827 39.2868L67.8574 64.2177Z" fill="#CCCCCC"/>
<path d="M70.8682 46.2484H106.533V64.3523H70.8682V46.2484Z" fill="white"/>
<path d="M70.9358 50.372V46.3157H106.465V64.285H84.9253C81.2163 64.2808 77.6605 62.8137 75.0379 60.2054C72.4152 57.5971 70.94 54.0607 70.9358 50.372Z" fill="#F2F2F2"/>
<path d="M68.3984 39.5191C68.4163 39.5528 68.4302 39.5885 68.4398 39.6254L69.6696 44.3398L71.0036 46.8523H106.397V46.2266L104.382 44.3399L102.032 39.8681C101.928 39.6707 101.792 39.492 101.628 39.3393C101.256 38.991 100.764 38.7971 100.253 38.7971H68.8359C68.7506 38.7971 68.6668 38.819 68.5925 38.8607C68.5183 38.9024 68.4561 38.9625 68.4121 39.0352C68.3681 39.1078 68.3437 39.1906 68.3413 39.2754C68.3389 39.3602 68.3585 39.4441 68.3984 39.5191Z" fill="#F2F2F2"/>
<path d="M70.8682 46.2484H106.533V64.3523H70.8682V46.2484ZM106.262 64.083H71.1389V46.5177H106.262L106.262 64.083Z" fill="#E6E6E6"/>
<path d="M69.0125 41.9306L69.6696 44.3398H104.382L103.26 42.3347L69.0125 41.9306Z" fill="#CCCCCC"/>
<path d="M105.218 55.7351H99.5322V56.048H105.218V55.7351Z" fill="white"/>
<path d="M105.218 56.8302H99.5322V57.1431H105.218V56.8302Z" fill="white"/>
<path d="M105.218 57.9254H99.5322V58.2382H105.218V57.9254Z" fill="white"/>
<path d="M103.015 52.2497C104.145 52.2497 105.06 51.3391 105.06 50.2159C105.06 49.0927 104.145 48.1821 103.015 48.1821C101.886 48.1821 100.97 49.0927 100.97 50.2159C100.97 51.3391 101.886 52.2497 103.015 52.2497Z" fill="white"/>
<path d="M86.5185 19.4858C88.9222 19.4284 91.2504 20.323 92.9909 21.9728C94.7314 23.6226 95.7417 25.8924 95.7994 28.283C95.9196 33.2611 92.3556 43.7344 87.2008 47.7459C85.7152 39.0597 78.3091 33.3329 77.6728 28.7159C76.9929 23.7824 81.513 19.6053 86.5185 19.4858Z" fill="#D1D3D4"/>
<path d="M87.4499 30.5996C89.0828 30.5996 90.4065 29.2831 90.4065 27.6591C90.4065 26.0351 89.0828 24.7186 87.4499 24.7186C85.8169 24.7186 84.4932 26.0351 84.4932 27.6591C84.4932 29.2831 85.8169 30.5996 87.4499 30.5996Z" fill="white"/>
<path d="M88.5647 52.1149C89.6343 52.1149 90.5013 51.2526 90.5013 50.1889C90.5013 49.1252 89.6343 48.2629 88.5647 48.2629C87.4952 48.2629 86.6282 49.1252 86.6282 50.1889C86.6282 51.2526 87.4952 52.1149 88.5647 52.1149Z" fill="#D1D3D4"/>
<path opacity="0.2" d="M85.1999 25.346C84.8507 25.5149 84.5385 25.7506 84.2809 26.0395C84.0233 26.3285 83.8255 26.665 83.6987 27.03C83.5719 27.395 83.5186 27.7812 83.542 28.1667C83.5653 28.5521 83.6647 28.9292 83.8345 29.2765C84.0044 29.6237 84.2413 29.9343 84.5319 30.1904C84.8224 30.4466 85.1608 30.6434 85.5278 30.7694C85.8948 30.8955 86.2831 30.9485 86.6707 30.9253C87.0583 30.9022 87.4375 30.8033 87.7866 30.6344C87.0905 30.7253 86.3847 30.5668 85.7953 30.1874C85.206 29.808 84.7716 29.2324 84.57 28.5636C84.3684 27.8948 84.4127 27.1765 84.695 26.5372C84.9773 25.8979 85.4791 25.3794 86.1106 25.0745C85.7943 25.1155 85.4868 25.2072 85.1999 25.346Z" fill="#212121"/>
<path opacity="0.2" d="M77.6606 28.7243C78.2969 33.3413 85.703 39.0681 87.1886 47.7544C87.6737 47.3731 88.1298 46.9567 88.5532 46.5085C86.745 38.3074 79.8112 32.8103 79.1964 28.3494C78.6461 24.3569 81.5017 20.86 85.264 19.6079C80.7815 20.318 77.0375 24.2033 77.6606 28.7243Z" fill="#212121"/>
<path d="M81.2514 43.9377C80.1495 43.8566 79.0593 44.2062 78.2127 44.9123C77.366 45.6184 76.8299 46.6251 76.7182 47.7183C76.6991 47.9409 76.6984 48.1647 76.7164 48.3873L63.2227 54.4273L69.6524 58.398L81.4806 52.0536C82.4032 51.9081 83.2514 51.4629 83.8929 50.7876C84.5344 50.1122 84.9331 49.2446 85.0266 48.3203C85.1239 47.257 84.7925 46.1988 84.1053 45.3785C83.4181 44.5582 82.4314 44.043 81.3622 43.9463C81.3253 43.9429 81.2883 43.9401 81.2514 43.9377Z" fill="#FFB6B6"/>
<path d="M67.9954 51.4924L70.1796 58.2263L56.9337 64.3083C55.9905 64.7458 54.9505 64.9362 53.9125 64.8614C52.8745 64.7865 51.873 64.4489 51.0032 63.8807C49.9465 63.1836 49.1463 62.1638 48.7232 60.975C48.3 59.7863 48.2769 58.4929 48.6572 57.2899L55.7546 35.4553C56.24 33.9258 57.2963 32.6395 58.7063 31.8608C60.1162 31.0822 61.7726 30.8704 63.3347 31.2691C64.0959 31.461 64.8116 31.8001 65.4411 32.267C66.0705 32.7339 66.6013 33.3196 67.0032 33.9906C67.4051 34.6615 67.6701 35.4046 67.7832 36.1774C67.8963 36.9503 67.8552 37.7377 67.6623 38.4947C67.6471 38.5545 67.6309 38.6141 67.6138 38.6734C67.5537 38.8843 67.4822 39.0919 67.3996 39.2952L60.8519 54.6144L67.9954 51.4924Z" fill="#E63946"/>
</g>
<defs>
<clipPath id="clip0_473_1499">
<rect width="272" height="195" fill="white"/>
</clipPath>
</defs>
</svg>
